<?xml version="1.0" encoding="utf-8"?>
<!-- Generator: Avocode 2.4.5 - http://avocode.com -->
<svg height="10" width="6" xmlns:xlink="http://www.w3.org/1999/xlink" xmlns="http://www.w3.org/2000/svg" viewBox="0 0 6 10">
    <path fill="#232323" fill-rule="evenodd" d="M 0.88 10 C 1.11 10 1.34 9.91 1.51 9.75 C 1.51 9.75 5.74 5.6 5.74 5.6 C 6.09 5.27 6.09 4.73 5.74 4.4 C 5.74 4.4 1.51 0.25 1.51 0.25 C 1.16 -0.08 0.61 -0.09 0.26 0.25 C -0.09 0.58 -0.09 1.13 0.26 1.46 C 0.26 1.46 3.87 5 3.87 5 C 3.87 5 0.26 8.54 0.26 8.54 C -0.09 8.88 -0.09 9.42 0.26 9.75 C 0.43 9.92 0.66 10 0.88 10 Z" />
</svg>