<?xml version="1.0" encoding="utf-8"?>
<!-- Generator: Avocode 2.4.5 - http://avocode.com -->
<svg height="40" width="40" xmlns:xlink="http://www.w3.org/1999/xlink" xmlns="http://www.w3.org/2000/svg" viewBox="0 0 40 40">
    <path stroke-width="2" stroke="#ffffff" fill="none" fill-rule="evenodd" d="M 20 0 C 31.05 0 40 8.95 40 20 C 40 31.05 31.05 40 20 40 C 8.95 40 0 31.05 0 20 C 0 8.95 8.95 0 20 0 Z" />
    <path fill="#ffffff" fill-rule="evenodd" d="M 18.2 15 C 18.5 15 18.81 15.1 19.03 15.3 C 19.03 15.3 24.66 20.29 24.66 20.29 C 25.11 20.69 25.11 21.34 24.66 21.74 C 24.66 21.74 19.03 26.73 19.03 26.73 C 18.58 27.13 17.84 27.13 17.38 26.73 C 16.92 26.33 16.91 25.68 17.37 25.27 C 17.37 25.27 22.18 21.02 22.18 21.02 C 22.18 21.02 17.37 16.76 17.37 16.76 C 16.91 16.35 16.92 15.7 17.38 15.3 C 17.61 15.1 17.9 15 18.2 15 Z" />
</svg>