<?xml version="1.0" encoding="utf-8"?>
<!-- Generator: Avocode 2.4.5 - http://avocode.com -->
<svg height="40" width="40" xmlns:xlink="http://www.w3.org/1999/xlink" xmlns="http://www.w3.org/2000/svg" viewBox="0 0 40 40">
    <path stroke-width="2" stroke="#ffffff" fill="none" fill-rule="evenodd" d="M 20 0 C 31.05 0 40 8.95 40 20 C 40 31.05 31.05 40 20 40 C 8.95 40 0 31.05 0 20 C 0 8.95 8.95 0 20 0 Z" />
    <path fill="#ffffff" fill-rule="evenodd" d="M 22.82 26 C 22.52 26 22.22 25.9 21.99 25.7 C 21.99 25.7 16.34 20.73 16.34 20.73 C 15.89 20.32 15.89 19.68 16.34 19.27 C 16.34 19.27 21.99 14.3 21.99 14.3 C 22.45 13.9 23.19 13.9 23.65 14.3 C 24.11 14.7 24.12 15.35 23.66 15.75 C 23.66 15.75 18.83 20 18.83 20 C 18.83 20 23.66 24.25 23.66 24.25 C 24.12 24.65 24.11 25.3 23.65 25.7 C 23.42 25.9 23.12 26 22.82 26 Z" />
</svg>