<?xml version="1.0" encoding="utf-8"?>
<!-- Generator: Avocode 2.4.5 - http://avocode.com -->
<svg height="40" width="40" xmlns:xlink="http://www.w3.org/1999/xlink" xmlns="http://www.w3.org/2000/svg" viewBox="0 0 40 40">
    <path stroke-width="2" stroke="#3b3b3b" fill="none" fill-rule="evenodd" d="M 20 0 C 31.05 0 40 8.95 40 20 C 40 31.05 31.05 40 20 40 C 8.95 40 0 31.05 0 20 C 0 8.95 8.95 0 20 0 Z" />
    <path fill="#ffffff" fill-rule="evenodd" d="M 14 22.8 C 14 22.5 14.1 22.19 14.3 21.97 C 14.3 21.97 19.29 16.34 19.29 16.34 C 19.69 15.89 20.34 15.89 20.74 16.34 C 20.74 16.34 25.73 21.97 25.73 21.97 C 26.13 22.42 26.13 23.16 25.73 23.62 C 25.33 24.08 24.68 24.08 24.27 23.63 C 24.27 23.63 20.02 18.82 20.02 18.82 C 20.02 18.82 15.76 23.63 15.76 23.63 C 15.35 24.08 14.7 24.08 14.3 23.62 C 14.1 23.39 14 23.09 14 22.8 Z" />
</svg>